<svg xmlns="http://www.w3.org/2000/svg" viewBox="0 0 240 240"><rect width="240" height="240" fill="#FAF7EE"/><path d="M47 176 Q29 155 39 115 L41 74 Q43 38 78 33 Q93 16 122 29 Q157 19 177 48 Q203 69 194 101 L202 149 Q207 173 189 183 Z" fill="#292823" stroke="#292823" stroke-width="4" stroke-linecap="round" stroke-linejoin="round"/><path d="M20 240 L26 213 Q34 190 86 183 L153 183 Q205 190 215 217 L220 240 Z" fill="#16734B" stroke="#292823" stroke-width="4" stroke-linecap="round" stroke-linejoin="round"/><path d="M92 156 L92 190 Q120 213 147 190 L147 151 Z" fill="#C9824D" stroke="#292823" stroke-width="4" stroke-linecap="round" stroke-linejoin="round"/><path d="M90 186 L120 207 L98 228 L78 188 Z" fill="#D8AA36" stroke="#292823" stroke-width="4" stroke-linecap="round" stroke-linejoin="round"/><path d="M148 186 L120 207 L143 225 L163 190 Z" fill="#D8AA36" stroke="#292823" stroke-width="4" stroke-linecap="round" stroke-linejoin="round"/><path d="M80 54 Q122 35 152 62 L164 90 L185 108 Q186 114 169 117 L169 146 Q163 169 138 175 L113 173 Q79 159 76 121 Z" fill="#C9824D" stroke="#292823" stroke-width="4" stroke-linecap="round" stroke-linejoin="round"/><path d="M84 74 Q101 62 121 54 Q150 54 156 74 L155 50 L129 34 L90 44 Z" fill="#292823" stroke="#292823" stroke-width="4" stroke-linecap="round" stroke-linejoin="round"/><path d="M138 84 L150 82" fill="none" stroke="#292823" stroke-width="5" stroke-linecap="round" stroke-linejoin="round"/><path d="M146 94 L148 99" fill="none" stroke="#292823" stroke-width="5" stroke-linecap="round" stroke-linejoin="round"/><path d="M160 134 L169 131" fill="none" stroke="#292823" stroke-width="3" stroke-linecap="round" stroke-linejoin="round"/><path d="M94 105 Q80 96 80 112 Q80 128 99 126" fill="#C9824D" stroke="#292823" stroke-width="4" stroke-linecap="round" stroke-linejoin="round"/></svg>